<?xml version="1.0" encoding="utf-8"?>
<!-- Generator: Adobe Illustrator 16.0.0, SVG Export Plug-In . SVG Version: 6.00 Build 0)  -->
<!DOCTYPE svg PUBLIC "-//W3C//DTD SVG 1.1//EN" "http://www.w3.org/Graphics/SVG/1.1/DTD/svg11.dtd">
<svg version="1.1" xmlns="http://www.w3.org/2000/svg" xmlns:xlink="http://www.w3.org/1999/xlink" x="0px" y="0px"
	 width="740.889px" height="228.75px" viewBox="0 0 740.889 228.75" enable-background="new 0 0 740.889 228.75"
	 xml:space="preserve">
<g id="Layer_1_xA0_Image_1_">
</g>
<g id="AtEar_xA0_Image_1_">
	<g>
		<rect x="132.586" fill="none" width="498.75" height="179.994"/>
		<path fill="#9C1D60" d="M254.853,166.63c0,1.042-0.326,1.853-0.975,2.438c-0.652,0.585-1.496,0.877-2.535,0.877h-20.67
			c-0.911,0-1.691-0.323-2.34-0.975c-0.652-0.649-1.106-1.429-1.365-2.34l-8.97-37.05h-44.85l-8.97,37.05
			c-0.262,0.911-0.716,1.691-1.365,2.34c-0.652,0.652-1.432,0.975-2.34,0.975h-20.67c-1.042,0-1.886-0.292-2.535-0.877
			c-0.652-0.585-0.975-1.396-0.975-2.438c0-0.128,0.03-0.259,0.098-0.39c0.064-0.128,0.097-0.323,0.097-0.585l31.98-122.265
			c1.17-4.549,2.858-8.123,5.07-10.725c2.209-2.599,4.583-4.583,7.117-5.948c2.535-1.365,5.134-2.243,7.8-2.632
			c2.663-0.39,5.036-0.585,7.117-0.585c2.078,0,4.452,0.195,7.118,0.585c2.663,0.39,5.265,1.268,7.8,2.632
			c2.535,1.365,4.906,3.349,7.118,5.948c2.209,2.602,3.9,6.176,5.07,10.725l31.98,122.265c0,0.262,0.031,0.457,0.098,0.585
			C254.819,166.371,254.853,166.502,254.853,166.63z M198.693,49.436c-0.262-1.17-0.585-1.98-0.975-2.438
			c-0.39-0.454-1.106-0.683-2.145-0.683c-1.042,0-1.755,0.229-2.145,0.683c-0.39,0.457-0.716,1.267-0.975,2.438l-14.04,57.915h34.32
			L198.693,49.436z"/>
		<path fill="#9C1D60" d="M320.958,170.14c-2.34,0.39-4.583,0.713-6.728,0.975c-2.145,0.259-4.324,0.39-6.533,0.39
			c-5.445,0-10.134-0.39-14.07-1.17c-3.937-0.78-7.13-2.273-9.58-4.485c-2.453-2.209-4.259-5.362-5.42-9.458
			c-1.161-4.095-1.74-9.39-1.74-15.892v-61.23l-18.33-2.73c-1.042-0.259-1.95-0.713-2.73-1.365c-0.78-0.649-1.17-1.493-1.17-2.535
			v-8.775c0-1.039,0.39-1.95,1.17-2.73c0.78-0.78,1.688-1.17,2.73-1.17h18.33v-15.99c0-1.039,0.387-1.883,1.161-2.535
			c0.774-0.649,1.676-1.103,2.708-1.365l18.001-3.12h0.774c2.063,0,3.096,0.975,3.096,2.925v20.085h17.55
			c1.039,0,1.95,0.39,2.73,1.17c0.78,0.78,1.17,1.691,1.17,2.73V75.37c0,1.042-0.39,1.95-1.17,2.73c-0.78,0.78-1.691,1.17-2.73,1.17
			h-17.55v61.23c0,2.471,0.064,4.421,0.195,5.85c0.128,1.432,0.454,2.535,0.975,3.315c0.518,0.78,1.268,1.267,2.243,1.462
			c0.975,0.195,2.37,0.292,4.192,0.292h10.335c2.73,0,4.095,0.975,4.095,2.925v12.285C324.663,168.58,323.426,169.75,320.958,170.14
			z"/>
		<path fill="#3AB8C7" d="M429.67,167.605c-0.585,0.521-1.594,0.911-3.022,1.17c-1.56,0.262-3.285,0.555-5.167,0.877
			c-1.886,0.323-4.226,0.615-7.02,0.877c-2.797,0.259-6.176,0.487-10.14,0.683c-3.967,0.195-8.873,0.292-14.722,0.292
			c-6.371,0-12.297-0.521-17.776-1.56c-5.478-1.039-10.247-3.022-14.305-5.947c-4.059-2.925-7.267-6.987-9.625-12.188
			c-2.358-5.198-3.534-11.959-3.534-20.28V63.475c0-8.318,1.176-15.079,3.534-20.28c2.358-5.198,5.567-9.263,9.625-12.188
			c4.058-2.925,8.827-4.905,14.305-5.947c5.479-1.039,11.405-1.56,17.776-1.56c5.85,0,10.755,0.097,14.722,0.292
			c3.964,0.195,7.343,0.423,10.14,0.682c2.794,0.262,5.134,0.555,7.02,0.878c1.883,0.326,3.607,0.618,5.167,0.877
			c1.429,0.262,2.438,0.652,3.022,1.17c0.585,0.521,0.877,1.496,0.877,2.925v12.48c0,1.042-0.39,1.95-1.17,2.73
			c-0.78,0.78-1.691,1.17-2.73,1.17h-39.78c-5.722,0-9.719,1.17-11.992,3.51c-2.276,2.34-3.413,6.761-3.413,13.26v21.06h52.845
			c1.039,0,1.95,0.39,2.73,1.17c0.78,0.78,1.17,1.691,1.17,2.73v14.04c0,1.042-0.39,1.95-1.17,2.73c-0.78,0.78-1.691,1.17-2.73,1.17
			h-52.845v25.155c0,6.502,1.137,10.92,3.413,13.26c2.273,2.34,6.271,3.51,11.992,3.51h39.78c1.039,0,1.95,0.39,2.73,1.17
			c0.78,0.78,1.17,1.691,1.17,2.73v12.48C430.548,166.112,430.255,167.087,429.67,167.605z"/>
		<path fill="#3AB8C7" d="M536.235,166.045c0,1.042-0.39,1.95-1.17,2.73c-0.779,0.78-1.69,1.17-2.729,1.17h-16.575
			c-1.042,0-1.95-0.39-2.729-1.17c-0.78-0.78-1.171-1.688-1.171-2.73v-3.12c-4.552,2.73-9.101,4.845-13.649,6.337
			c-4.552,1.493-9.165,2.243-13.845,2.243c-4.031,0-8.063-0.457-12.091-1.365c-4.03-0.908-7.638-2.599-10.822-5.07
			c-3.187-2.468-5.786-5.783-7.8-9.945c-2.017-4.159-3.022-9.555-3.022-16.185v-0.78c0-5.588,0.877-10.463,2.632-14.625
			c1.755-4.159,4.549-7.669,8.385-10.53c3.833-2.858,8.774-5.003,14.82-6.435c6.045-1.429,13.29-2.145,21.742-2.145h12.285v-8.65
			c0-6.42-1.398-10.68-4.192-12.776c-2.798-2.096-7.118-3.144-12.968-3.144c-6.24,0-12.285,0.165-18.135,0.487
			c-5.851,0.326-10.402,0.683-13.65,1.073h-0.975c-1.042,0-1.887-0.195-2.535-0.585c-0.652-0.39-0.976-1.295-0.976-2.714V65.748
			c0-2.188,1.234-3.54,3.705-4.055c3.9-0.774,8.61-1.481,14.138-2.126c5.524-0.643,11.667-0.966,18.428-0.966
			c13.909,0,24.536,3.056,31.883,9.165c7.343,6.112,11.017,15.472,11.017,28.08V166.045z M510.496,121.585h-12.355
			c-4.448,0-8.077,0.359-10.887,1.072c-2.809,0.716-5.033,1.755-6.666,3.12c-1.637,1.365-2.748,3.089-3.337,5.167
			c-0.588,2.081-0.88,4.485-0.88,7.215v0.78c0,4.811,1.108,8.028,3.333,9.652c2.225,1.627,5.819,2.438,10.786,2.438
			c3.528,0,7.025-0.518,10.493-1.56c3.464-1.039,6.636-2.34,9.513-3.9V121.585z"/>
		<path fill="#3AB8C7" d="M616.963,79.271c-0.779,0.78-1.69,1.17-2.729,1.17c-5.332,0-10.109,0.618-14.333,1.853
			c-4.226,1.237-8.418,2.958-12.577,5.167v78.39c0,1.042-0.39,1.984-1.17,2.828c-0.78,0.847-1.691,1.268-2.73,1.268h-17.939
			c-1.042,0-1.95-0.42-2.73-1.268c-0.779-0.844-1.17-1.785-1.17-2.828V63.865c0-1.039,0.391-1.95,1.17-2.73
			c0.78-0.78,1.688-1.17,2.73-1.17h16.965c1.039,0,1.95,0.39,2.729,1.17c0.78,0.78,1.171,1.691,1.171,2.73v4.095
			c4.808-3.769,9.683-6.271,14.625-7.508c4.938-1.234,9.359-1.853,13.26-1.853c1.039,0,1.95,0.39,2.729,1.17
			c0.78,0.78,1.17,1.691,1.17,2.73v14.04C618.133,77.583,617.743,78.49,616.963,79.271z"/>
	</g>
	<g>
		<rect x="147.844" y="187.494" fill="none" width="456.246" height="41.256"/>
		<path fill="#9C1D60" d="M171.35,219.536c0,0.2-0.063,0.356-0.188,0.469c-0.125,0.112-0.288,0.169-0.488,0.169h-3.975
			c-0.175,0-0.325-0.063-0.45-0.188c-0.125-0.125-0.213-0.274-0.263-0.45l-1.725-7.125h-8.625l-1.725,7.125
			c-0.051,0.176-0.138,0.325-0.263,0.45c-0.125,0.125-0.275,0.188-0.45,0.188h-3.975c-0.201,0-0.363-0.057-0.488-0.169
			c-0.125-0.112-0.188-0.269-0.188-0.469c0-0.024,0.006-0.05,0.019-0.075c0.012-0.024,0.019-0.062,0.019-0.112l6.15-23.513
			c0.225-0.874,0.55-1.562,0.975-2.063c0.425-0.499,0.881-0.881,1.369-1.144c0.488-0.263,0.987-0.431,1.5-0.506
			c0.512-0.075,0.969-0.112,1.369-0.112s0.856,0.037,1.369,0.112c0.512,0.075,1.012,0.243,1.5,0.506
			c0.487,0.263,0.943,0.645,1.369,1.144c0.425,0.501,0.75,1.188,0.975,2.063l6.15,23.513c0,0.051,0.006,0.088,0.019,0.112
			C171.343,219.486,171.35,219.512,171.35,219.536z M160.549,196.999c-0.05-0.226-0.112-0.381-0.188-0.469
			c-0.075-0.088-0.212-0.132-0.413-0.132s-0.337,0.044-0.412,0.132c-0.075,0.088-0.138,0.243-0.188,0.469l-2.7,11.138h6.6
			L160.549,196.999z"/>
		<path fill="#9C1D60" d="M184.062,220.211c-0.45,0.075-0.881,0.138-1.294,0.188c-0.412,0.05-0.831,0.075-1.256,0.075
			c-1.047,0-1.949-0.075-2.706-0.225c-0.757-0.15-1.371-0.438-1.842-0.862c-0.472-0.425-0.819-1.031-1.042-1.819
			c-0.223-0.787-0.334-1.806-0.334-3.056v-11.775l-3.525-0.525c-0.2-0.05-0.375-0.137-0.525-0.262s-0.225-0.287-0.225-0.488v-1.688
			c0-0.199,0.075-0.375,0.225-0.524c0.15-0.15,0.325-0.226,0.525-0.226h3.525v-3.074c0-0.2,0.075-0.362,0.223-0.488
			c0.149-0.124,0.322-0.212,0.521-0.262l3.462-0.601h0.149c0.396,0,0.595,0.188,0.595,0.563v3.862h3.375
			c0.2,0,0.375,0.075,0.525,0.226c0.15,0.149,0.225,0.325,0.225,0.524v2.213c0,0.2-0.075,0.375-0.225,0.525
			c-0.15,0.149-0.325,0.225-0.525,0.225h-3.375v11.775c0,0.475,0.012,0.85,0.038,1.125c0.024,0.275,0.087,0.487,0.188,0.637
			c0.1,0.15,0.244,0.244,0.431,0.281c0.188,0.038,0.456,0.057,0.806,0.057h1.987c0.525,0,0.788,0.188,0.788,0.563v2.362
			C184.774,219.911,184.537,220.137,184.062,220.211z"/>
		<path fill="#9C1D60" d="M204.968,219.724c-0.112,0.101-0.307,0.176-0.581,0.226c-0.3,0.05-0.632,0.106-0.994,0.168
			c-0.362,0.063-0.813,0.119-1.35,0.169c-0.538,0.05-1.188,0.094-1.95,0.132c-0.763,0.037-1.706,0.056-2.831,0.056
			c-1.226,0-2.365-0.1-3.418-0.3c-1.054-0.2-1.971-0.581-2.751-1.144c-0.781-0.563-1.397-1.344-1.851-2.344s-0.68-2.3-0.68-3.9
			v-13.087c0-1.6,0.226-2.9,0.68-3.9s1.07-1.781,1.851-2.344c0.78-0.563,1.697-0.943,2.751-1.144c1.053-0.2,2.193-0.3,3.418-0.3
			c1.125,0,2.068,0.019,2.831,0.056c0.762,0.038,1.412,0.082,1.95,0.132c0.537,0.05,0.987,0.106,1.35,0.168
			c0.362,0.063,0.694,0.119,0.994,0.169c0.274,0.051,0.469,0.126,0.581,0.226s0.169,0.287,0.169,0.563v2.399
			c0,0.2-0.075,0.375-0.225,0.525c-0.15,0.149-0.325,0.225-0.525,0.225h-7.65c-1.1,0-1.869,0.226-2.306,0.675
			c-0.438,0.45-0.656,1.301-0.656,2.551v4.05h10.163c0.2,0,0.375,0.075,0.525,0.225c0.15,0.15,0.225,0.325,0.225,0.525v2.7
			c0,0.2-0.075,0.375-0.225,0.524c-0.15,0.15-0.325,0.226-0.525,0.226h-10.163v4.837c0,1.251,0.219,2.101,0.656,2.55
			c0.437,0.45,1.206,0.676,2.306,0.676h7.65c0.2,0,0.375,0.074,0.525,0.225s0.225,0.325,0.225,0.525v2.399
			C205.137,219.437,205.081,219.624,204.968,219.724z"/>
		<path fill="#9C1D60" d="M225.461,219.424c0,0.2-0.075,0.375-0.225,0.525c-0.15,0.149-0.325,0.225-0.525,0.225h-3.188
			c-0.2,0-0.375-0.075-0.525-0.225c-0.15-0.15-0.225-0.325-0.225-0.525v-0.6c-0.875,0.524-1.75,0.932-2.625,1.219
			s-1.762,0.431-2.662,0.431c-0.775,0-1.551-0.088-2.325-0.263c-0.775-0.174-1.469-0.499-2.081-0.975
			c-0.613-0.475-1.113-1.112-1.5-1.912c-0.388-0.8-0.582-1.838-0.582-3.113v-0.149c0-1.075,0.169-2.013,0.506-2.813
			s0.875-1.475,1.612-2.025c0.737-0.55,1.688-0.962,2.85-1.237c1.163-0.274,2.556-0.412,4.181-0.412h2.363v-1.664
			c0-1.234-0.269-2.054-0.806-2.457c-0.538-0.402-1.369-0.604-2.494-0.604c-1.2,0-2.362,0.032-3.487,0.094
			c-1.125,0.063-2,0.132-2.625,0.206h-0.188c-0.2,0-0.363-0.037-0.487-0.112c-0.125-0.075-0.188-0.249-0.188-0.521v-2.379
			c0-0.421,0.237-0.681,0.712-0.779c0.75-0.149,1.656-0.285,2.719-0.409c1.062-0.124,2.244-0.186,3.543-0.186
			c2.675,0,4.719,0.587,6.131,1.762c1.412,1.176,2.119,2.976,2.119,5.4V219.424z M220.512,210.874h-2.376
			c-0.855,0-1.553,0.069-2.094,0.206c-0.54,0.138-0.968,0.338-1.282,0.6c-0.315,0.263-0.529,0.595-0.642,0.994
			c-0.113,0.4-0.169,0.862-0.169,1.388v0.149c0,0.926,0.213,1.544,0.641,1.856c0.428,0.313,1.119,0.469,2.074,0.469
			c0.678,0,1.351-0.1,2.018-0.3s1.276-0.45,1.83-0.75V210.874z"/>
		<path fill="#9C1D60" d="M240.986,202.736c-0.15,0.15-0.325,0.225-0.525,0.225c-1.025,0-1.944,0.119-2.756,0.356
			c-0.813,0.238-1.619,0.569-2.418,0.994v15.075c0,0.2-0.075,0.381-0.225,0.543c-0.15,0.163-0.325,0.244-0.525,0.244h-3.45
			c-0.2,0-0.375-0.081-0.525-0.244c-0.15-0.162-0.225-0.343-0.225-0.543v-19.613c0-0.199,0.075-0.375,0.225-0.524
			c0.15-0.15,0.325-0.226,0.525-0.226h3.263c0.2,0,0.375,0.075,0.525,0.226c0.15,0.149,0.225,0.325,0.225,0.524v0.788
			c0.924-0.725,1.862-1.206,2.813-1.444c0.95-0.237,1.8-0.355,2.55-0.355c0.2,0,0.375,0.074,0.525,0.225s0.225,0.325,0.225,0.525
			v2.699C241.211,202.412,241.136,202.586,240.986,202.736z"/>
		<path fill="#3AB8C7" d="M282.761,192.949l-3.525,24.487c-0.175,1.175-0.538,1.975-1.087,2.399
			c-0.55,0.425-1.313,0.638-2.288,0.638h-2.025c-0.85,0-1.513-0.225-1.987-0.675c-0.476-0.45-0.851-1.225-1.125-2.325l-2.963-12.375
			c-0.05-0.274-0.125-0.412-0.225-0.412c-0.125,0-0.213,0.138-0.263,0.412l-2.962,12.375c-0.275,1.101-0.65,1.875-1.125,2.325
			c-0.475,0.45-1.138,0.675-1.988,0.675h-2.025c-0.975,0-1.738-0.213-2.288-0.638s-0.913-1.225-1.087-2.399l-3.525-24.487v-0.113
			c0-0.174,0.062-0.306,0.188-0.394c0.125-0.087,0.275-0.131,0.45-0.131h3.975c0.15,0,0.287,0.063,0.413,0.188
			c0.125,0.125,0.2,0.287,0.225,0.487l2.7,22.388c0.024,0.175,0.043,0.313,0.056,0.412c0.012,0.101,0.056,0.15,0.131,0.15
			c0.075,0,0.118-0.05,0.131-0.15c0.013-0.1,0.043-0.237,0.094-0.412l3.225-13.163c0.125-0.449,0.35-0.844,0.675-1.181
			c0.324-0.338,0.887-0.507,1.688-0.507h2.587c0.8,0,1.362,0.169,1.688,0.507c0.325,0.337,0.549,0.731,0.675,1.181l3.225,13.163
			c0.05,0.175,0.081,0.313,0.094,0.412c0.012,0.101,0.056,0.15,0.131,0.15c0.075,0,0.118-0.05,0.131-0.15
			c0.012-0.1,0.031-0.237,0.056-0.412l2.7-22.388c0.025-0.2,0.1-0.362,0.225-0.487c0.125-0.125,0.263-0.188,0.413-0.188h3.975
			c0.174,0,0.325,0.044,0.45,0.131c0.125,0.088,0.188,0.22,0.188,0.394V192.949z"/>
		<path fill="#3AB8C7" d="M291.461,219.949c-0.15,0.149-0.325,0.225-0.525,0.225h-3.712c-0.2,0-0.375-0.075-0.525-0.225
			c-0.15-0.15-0.225-0.325-0.225-0.525v-26.4c0-0.199,0.075-0.368,0.225-0.506c0.15-0.137,0.325-0.206,0.525-0.206h3.712
			c0.2,0,0.375,0.069,0.525,0.206c0.15,0.138,0.225,0.307,0.225,0.506v26.4C291.687,219.624,291.612,219.799,291.461,219.949z"/>
		<path fill="#3AB8C7" d="M317.561,219.724c0,0.3-0.15,0.45-0.45,0.45h-4.575c-0.201,0-0.351-0.074-0.45-0.224
			c-0.1-0.149-0.2-0.324-0.3-0.524l-5.4-9.977h-0.525c-0.5,0-1.075-0.02-1.725-0.057c-0.65-0.037-1.188-0.068-1.613-0.094v10.127
			c0,0.2-0.069,0.375-0.206,0.524c-0.138,0.149-0.307,0.224-0.506,0.224h-3.75c-0.2,0-0.375-0.075-0.525-0.225
			c-0.15-0.15-0.225-0.325-0.225-0.525v-25.8c0-0.375,0.106-0.644,0.319-0.807c0.213-0.162,0.507-0.269,0.883-0.318
			c0.977-0.15,2.104-0.269,3.382-0.356c1.277-0.087,2.604-0.131,3.982-0.131c1.453,0,2.83,0.144,4.133,0.431
			c1.302,0.288,2.448,0.757,3.438,1.406c0.989,0.65,1.778,1.519,2.367,2.606c0.588,1.088,0.883,2.432,0.883,4.031v0.338
			c0,2-0.46,3.625-1.379,4.875s-2.16,2.175-3.721,2.774l5.887,10.95C317.536,219.499,317.561,219.599,317.561,219.724z
			 M311.486,200.486c0-1.425-0.469-2.45-1.406-3.075c-0.938-0.624-2.344-0.938-4.219-0.938c-0.2,0-0.456,0.007-0.769,0.019
			c-0.313,0.014-0.632,0.025-0.956,0.038c-0.325,0.013-0.632,0.025-0.919,0.037c-0.288,0.013-0.519,0.032-0.694,0.057v8.438
			c0.15,0,0.381,0.006,0.694,0.019c0.313,0.013,0.638,0.025,0.975,0.037c0.337,0.014,0.662,0.025,0.975,0.038
			c0.312,0.013,0.543,0.019,0.693,0.019c1.95,0,3.375-0.313,4.275-0.938c0.9-0.625,1.35-1.763,1.35-3.412V200.486z"/>
		<path fill="#3AB8C7" d="M337.267,219.724c-0.112,0.101-0.307,0.176-0.581,0.226c-0.3,0.05-0.632,0.106-0.994,0.168
			c-0.362,0.063-0.813,0.119-1.35,0.169c-0.538,0.05-1.188,0.094-1.95,0.132c-0.763,0.037-1.706,0.056-2.831,0.056
			c-1.226,0-2.365-0.1-3.418-0.3c-1.054-0.2-1.971-0.581-2.751-1.144c-0.781-0.563-1.397-1.344-1.851-2.344s-0.68-2.3-0.68-3.9
			v-13.087c0-1.6,0.226-2.9,0.68-3.9s1.07-1.781,1.851-2.344c0.78-0.563,1.697-0.943,2.751-1.144c1.053-0.2,2.193-0.3,3.418-0.3
			c1.125,0,2.068,0.019,2.831,0.056c0.762,0.038,1.412,0.082,1.95,0.132c0.537,0.05,0.987,0.106,1.35,0.168
			c0.362,0.063,0.694,0.119,0.994,0.169c0.274,0.051,0.469,0.126,0.581,0.226s0.169,0.287,0.169,0.563v2.399
			c0,0.2-0.075,0.375-0.225,0.525c-0.15,0.149-0.325,0.225-0.525,0.225h-7.65c-1.1,0-1.869,0.226-2.306,0.675
			c-0.438,0.45-0.656,1.301-0.656,2.551v4.05h10.163c0.2,0,0.375,0.075,0.525,0.225c0.15,0.15,0.225,0.325,0.225,0.525v2.7
			c0,0.2-0.075,0.375-0.225,0.524c-0.15,0.15-0.325,0.226-0.525,0.226h-10.163v4.837c0,1.251,0.219,2.101,0.656,2.55
			c0.437,0.45,1.206,0.676,2.306,0.676h7.65c0.2,0,0.375,0.074,0.525,0.225s0.225,0.325,0.225,0.525v2.399
			C337.436,219.437,337.379,219.624,337.267,219.724z"/>
		<path fill="#3AB8C7" d="M358.079,219.724c-0.112,0.101-0.306,0.176-0.581,0.226c-0.275,0.074-0.669,0.144-1.181,0.206
			c-0.513,0.062-1.069,0.118-1.669,0.169c-0.6,0.05-1.213,0.087-1.837,0.112c-0.625,0.024-1.188,0.037-1.688,0.037
			c-1.225,0-2.363-0.1-3.413-0.3s-1.963-0.581-2.737-1.144c-0.775-0.563-1.388-1.344-1.838-2.344c-0.45-1-0.675-2.3-0.675-3.9
			v-19.725c0-0.2,0.075-0.375,0.225-0.525c0.15-0.149,0.325-0.225,0.525-0.225h3.712c0.2,0,0.375,0.075,0.525,0.225
			c0.15,0.15,0.225,0.325,0.225,0.525v19.725c0,1.251,0.212,2.101,0.638,2.55c0.425,0.45,1.187,0.676,2.288,0.676h6.9
			c0.2,0,0.375,0.074,0.525,0.225s0.225,0.325,0.225,0.525v2.399C358.248,219.437,358.192,219.624,358.079,219.724z"/>
		<path fill="#3AB8C7" d="M377.467,219.724c-0.112,0.101-0.307,0.176-0.581,0.226c-0.3,0.05-0.632,0.106-0.994,0.168
			c-0.362,0.063-0.813,0.119-1.35,0.169c-0.538,0.05-1.188,0.094-1.95,0.132c-0.763,0.037-1.706,0.056-2.831,0.056
			c-1.226,0-2.365-0.1-3.418-0.3c-1.054-0.2-1.971-0.581-2.751-1.144c-0.781-0.563-1.397-1.344-1.851-2.344s-0.68-2.3-0.68-3.9
			v-13.087c0-1.6,0.226-2.9,0.68-3.9s1.07-1.781,1.851-2.344c0.78-0.563,1.697-0.943,2.751-1.144c1.053-0.2,2.193-0.3,3.418-0.3
			c1.125,0,2.068,0.019,2.831,0.056c0.762,0.038,1.412,0.082,1.95,0.132c0.537,0.05,0.987,0.106,1.35,0.168
			c0.362,0.063,0.694,0.119,0.994,0.169c0.274,0.051,0.469,0.126,0.581,0.226s0.169,0.287,0.169,0.563v2.399
			c0,0.2-0.075,0.375-0.225,0.525c-0.15,0.149-0.325,0.225-0.525,0.225h-7.65c-1.1,0-1.869,0.226-2.306,0.675
			c-0.438,0.45-0.656,1.301-0.656,2.551v4.05h10.163c0.2,0,0.375,0.075,0.525,0.225c0.15,0.15,0.225,0.325,0.225,0.525v2.7
			c0,0.2-0.075,0.375-0.225,0.524c-0.15,0.15-0.325,0.226-0.525,0.226h-10.163v4.837c0,1.251,0.219,2.101,0.656,2.55
			c0.437,0.45,1.206,0.676,2.306,0.676h7.65c0.2,0,0.375,0.074,0.525,0.225s0.225,0.325,0.225,0.525v2.399
			C377.636,219.437,377.579,219.624,377.467,219.724z"/>
		<path fill="#3AB8C7" d="M399.535,212.637c0,0.95-0.163,1.894-0.487,2.831c-0.325,0.938-0.869,1.775-1.631,2.513
			c-0.763,0.737-1.775,1.337-3.038,1.8c-1.263,0.462-2.831,0.693-4.706,0.693c-1.425,0-2.663-0.063-3.713-0.188
			c-1.05-0.125-2.025-0.287-2.925-0.487c-0.2-0.05-0.369-0.137-0.506-0.263c-0.138-0.125-0.206-0.287-0.206-0.487v-2.7
			c0-0.199,0.068-0.368,0.206-0.506c0.137-0.138,0.306-0.206,0.506-0.206h0.075c0.375,0.05,0.868,0.094,1.481,0.131
			c0.612,0.037,1.244,0.075,1.894,0.112c0.649,0.038,1.269,0.069,1.856,0.094c0.587,0.025,1.056,0.038,1.406,0.038
			c1.675,0,2.818-0.287,3.431-0.863c0.612-0.574,0.919-1.412,0.919-2.512c0-0.375-0.05-0.706-0.15-0.994
			c-0.1-0.287-0.275-0.568-0.525-0.844c-0.25-0.274-0.576-0.556-0.975-0.844c-0.4-0.287-0.913-0.619-1.538-0.994l-4.95-2.962
			c-0.875-0.525-1.594-1.05-2.156-1.575s-1.012-1.068-1.35-1.631c-0.338-0.563-0.576-1.15-0.713-1.763
			c-0.138-0.612-0.206-1.243-0.206-1.894c0-1.025,0.162-1.975,0.487-2.851c0.325-0.875,0.856-1.631,1.594-2.269
			s1.7-1.131,2.888-1.481c1.187-0.35,2.656-0.524,4.406-0.524c0.625,0,1.287,0.019,1.987,0.056c0.7,0.038,1.388,0.094,2.063,0.169
			c0.675,0.075,1.288,0.15,1.838,0.225c0.549,0.075,0.987,0.15,1.313,0.226c0.2,0.05,0.362,0.131,0.487,0.243
			c0.125,0.113,0.188,0.27,0.188,0.469v2.775c0,0.2-0.056,0.362-0.169,0.487c-0.112,0.126-0.269,0.188-0.469,0.188h-0.075
			c-1.25-0.125-2.488-0.219-3.712-0.281c-1.226-0.062-2.451-0.094-3.675-0.094c-1.4,0-2.406,0.231-3.019,0.694
			c-0.613,0.463-0.919,1.119-0.919,1.969c0,0.3,0.043,0.581,0.131,0.844c0.087,0.262,0.25,0.524,0.487,0.787
			c0.237,0.263,0.556,0.531,0.957,0.807c0.399,0.275,0.9,0.575,1.5,0.899l4.5,2.513c1.025,0.575,1.875,1.156,2.55,1.744
			c0.675,0.587,1.206,1.193,1.594,1.818c0.387,0.625,0.662,1.275,0.825,1.95C399.454,211.174,399.535,211.887,399.535,212.637z"/>
		<path fill="#3AB8C7" d="M420.91,212.637c0,0.95-0.163,1.894-0.487,2.831c-0.325,0.938-0.869,1.775-1.631,2.513
			c-0.763,0.737-1.775,1.337-3.038,1.8c-1.263,0.462-2.831,0.693-4.706,0.693c-1.425,0-2.663-0.063-3.713-0.188
			c-1.05-0.125-2.025-0.287-2.925-0.487c-0.2-0.05-0.369-0.137-0.506-0.263c-0.138-0.125-0.206-0.287-0.206-0.487v-2.7
			c0-0.199,0.068-0.368,0.206-0.506c0.137-0.138,0.306-0.206,0.506-0.206h0.075c0.375,0.05,0.868,0.094,1.481,0.131
			c0.612,0.037,1.244,0.075,1.894,0.112c0.649,0.038,1.269,0.069,1.856,0.094c0.587,0.025,1.056,0.038,1.406,0.038
			c1.675,0,2.818-0.287,3.431-0.863c0.612-0.574,0.919-1.412,0.919-2.512c0-0.375-0.05-0.706-0.15-0.994
			c-0.1-0.287-0.275-0.568-0.525-0.844c-0.25-0.274-0.576-0.556-0.975-0.844c-0.4-0.287-0.913-0.619-1.538-0.994l-4.95-2.962
			c-0.875-0.525-1.594-1.05-2.156-1.575s-1.012-1.068-1.35-1.631c-0.338-0.563-0.576-1.15-0.713-1.763
			c-0.138-0.612-0.206-1.243-0.206-1.894c0-1.025,0.162-1.975,0.487-2.851c0.325-0.875,0.856-1.631,1.594-2.269
			s1.7-1.131,2.888-1.481c1.187-0.35,2.656-0.524,4.406-0.524c0.625,0,1.287,0.019,1.987,0.056c0.7,0.038,1.388,0.094,2.063,0.169
			c0.675,0.075,1.288,0.15,1.838,0.225c0.549,0.075,0.987,0.15,1.313,0.226c0.2,0.05,0.362,0.131,0.487,0.243
			c0.125,0.113,0.188,0.27,0.188,0.469v2.775c0,0.2-0.056,0.362-0.169,0.487c-0.112,0.126-0.269,0.188-0.469,0.188h-0.075
			c-1.25-0.125-2.488-0.219-3.712-0.281c-1.226-0.062-2.451-0.094-3.675-0.094c-1.4,0-2.406,0.231-3.019,0.694
			c-0.613,0.463-0.919,1.119-0.919,1.969c0,0.3,0.043,0.581,0.131,0.844c0.087,0.262,0.25,0.524,0.487,0.787
			c0.237,0.263,0.556,0.531,0.957,0.807c0.399,0.275,0.9,0.575,1.5,0.899l4.5,2.513c1.025,0.575,1.875,1.156,2.55,1.744
			c0.675,0.587,1.206,1.193,1.594,1.818c0.387,0.625,0.662,1.275,0.825,1.95C420.828,211.174,420.91,211.887,420.91,212.637z"/>
		<path fill="#3AB8C7" d="M451.659,212.637c0,0.95-0.163,1.894-0.487,2.831c-0.325,0.938-0.869,1.775-1.631,2.513
			c-0.763,0.737-1.775,1.337-3.038,1.8c-1.263,0.462-2.831,0.693-4.706,0.693c-1.425,0-2.663-0.063-3.713-0.188
			c-1.05-0.125-2.025-0.287-2.925-0.487c-0.2-0.05-0.369-0.137-0.506-0.263c-0.138-0.125-0.206-0.287-0.206-0.487v-2.7
			c0-0.199,0.068-0.368,0.206-0.506c0.137-0.138,0.306-0.206,0.506-0.206h0.075c0.375,0.05,0.868,0.094,1.481,0.131
			c0.612,0.037,1.244,0.075,1.894,0.112c0.649,0.038,1.269,0.069,1.856,0.094c0.587,0.025,1.056,0.038,1.406,0.038
			c1.675,0,2.818-0.287,3.431-0.863c0.612-0.574,0.919-1.412,0.919-2.512c0-0.375-0.05-0.706-0.15-0.994
			c-0.1-0.287-0.275-0.568-0.525-0.844c-0.25-0.274-0.576-0.556-0.975-0.844c-0.4-0.287-0.913-0.619-1.538-0.994l-4.95-2.962
			c-0.875-0.525-1.594-1.05-2.156-1.575s-1.012-1.068-1.35-1.631c-0.338-0.563-0.576-1.15-0.713-1.763
			c-0.138-0.612-0.206-1.243-0.206-1.894c0-1.025,0.162-1.975,0.487-2.851c0.325-0.875,0.856-1.631,1.594-2.269
			s1.7-1.131,2.888-1.481c1.187-0.35,2.656-0.524,4.406-0.524c0.625,0,1.287,0.019,1.987,0.056c0.7,0.038,1.388,0.094,2.063,0.169
			c0.675,0.075,1.288,0.15,1.838,0.225c0.549,0.075,0.987,0.15,1.313,0.226c0.2,0.05,0.362,0.131,0.487,0.243
			c0.125,0.113,0.188,0.27,0.188,0.469v2.775c0,0.2-0.056,0.362-0.169,0.487c-0.112,0.126-0.269,0.188-0.469,0.188h-0.075
			c-1.25-0.125-2.488-0.219-3.712-0.281c-1.226-0.062-2.451-0.094-3.675-0.094c-1.4,0-2.406,0.231-3.019,0.694
			c-0.613,0.463-0.919,1.119-0.919,1.969c0,0.3,0.043,0.581,0.131,0.844c0.087,0.262,0.25,0.524,0.487,0.787
			c0.237,0.263,0.556,0.531,0.957,0.807c0.399,0.275,0.9,0.575,1.5,0.899l4.5,2.513c1.025,0.575,1.875,1.156,2.55,1.744
			c0.675,0.587,1.206,1.193,1.594,1.818c0.387,0.625,0.662,1.275,0.825,1.95C451.578,211.174,451.659,211.887,451.659,212.637z"/>
		<path fill="#3AB8C7" d="M472.565,219.724c-0.112,0.101-0.307,0.176-0.581,0.226c-0.3,0.05-0.632,0.106-0.994,0.168
			c-0.362,0.063-0.813,0.119-1.35,0.169c-0.538,0.05-1.188,0.094-1.95,0.132c-0.763,0.037-1.706,0.056-2.831,0.056
			c-1.226,0-2.365-0.1-3.419-0.3c-1.053-0.2-1.97-0.581-2.751-1.144c-0.78-0.563-1.397-1.344-1.851-2.344s-0.68-2.3-0.68-3.9
			v-13.087c0-1.6,0.227-2.9,0.68-3.9s1.07-1.781,1.851-2.344c0.781-0.563,1.698-0.943,2.751-1.144c1.054-0.2,2.193-0.3,3.419-0.3
			c1.125,0,2.068,0.019,2.831,0.056c0.763,0.038,1.412,0.082,1.95,0.132c0.537,0.05,0.987,0.106,1.35,0.168
			c0.362,0.063,0.694,0.119,0.994,0.169c0.274,0.051,0.469,0.126,0.581,0.226s0.169,0.287,0.169,0.563v2.399
			c0,0.2-0.075,0.375-0.226,0.525c-0.149,0.149-0.325,0.225-0.524,0.225h-7.65c-1.101,0-1.869,0.226-2.306,0.675
			c-0.438,0.45-0.656,1.301-0.656,2.551v4.05h10.162c0.2,0,0.375,0.075,0.525,0.225c0.149,0.15,0.225,0.325,0.225,0.525v2.7
			c0,0.2-0.075,0.375-0.225,0.524c-0.15,0.15-0.325,0.226-0.525,0.226h-10.162v4.837c0,1.251,0.218,2.101,0.656,2.55
			c0.437,0.45,1.205,0.676,2.306,0.676h7.65c0.199,0,0.375,0.074,0.524,0.225c0.15,0.15,0.226,0.325,0.226,0.525v2.399
			C472.734,219.437,472.678,219.624,472.565,219.724z"/>
		<path fill="#3AB8C7" d="M494.108,219.593c-0.149,0.112-0.35,0.206-0.6,0.281c-0.15,0.05-0.406,0.106-0.769,0.169
			c-0.363,0.063-0.807,0.125-1.331,0.188c-0.525,0.062-1.113,0.118-1.763,0.168c-0.65,0.05-1.338,0.075-2.063,0.075
			c-1.125,0-2.313-0.163-3.563-0.487s-2.39-0.919-3.42-1.781s-1.887-2.031-2.569-3.506c-0.683-1.476-1.023-3.375-1.023-5.7v-5.513
			c0-2.35,0.341-4.269,1.023-5.756s1.539-2.656,2.569-3.507c1.03-0.85,2.17-1.431,3.42-1.743s2.438-0.469,3.563-0.469
			c0.725,0,1.412,0.024,2.063,0.074c0.649,0.051,1.237,0.107,1.763,0.169c0.524,0.063,0.968,0.132,1.331,0.206
			c0.362,0.075,0.618,0.126,0.769,0.15c0.25,0.075,0.45,0.169,0.6,0.281c0.15,0.112,0.226,0.307,0.226,0.581v2.513
			c0,0.225-0.057,0.412-0.169,0.563s-0.307,0.225-0.581,0.225h-0.075c-0.325-0.024-0.719-0.056-1.182-0.094
			c-0.463-0.037-0.956-0.068-1.48-0.094c-0.525-0.024-1.063-0.05-1.613-0.074c-0.55-0.025-1.075-0.038-1.574-0.038
			c-0.801,0-1.532,0.119-2.194,0.356c-0.662,0.238-1.231,0.625-1.706,1.162c-0.476,0.538-0.851,1.257-1.125,2.156
			c-0.275,0.9-0.412,2.013-0.412,3.338v5.513c0,1.3,0.137,2.399,0.412,3.3c0.274,0.9,0.649,1.625,1.125,2.175
			c0.475,0.551,1.044,0.944,1.706,1.182s1.394,0.356,2.194,0.356c0.499,0,1.024-0.013,1.574-0.038
			c0.55-0.024,1.088-0.05,1.613-0.075c0.524-0.024,1.018-0.056,1.48-0.094c0.463-0.037,0.856-0.068,1.182-0.094h0.075
			c0.274,0,0.469,0.075,0.581,0.226c0.112,0.149,0.169,0.337,0.169,0.563v2.513C494.334,219.287,494.259,219.48,494.108,219.593z"/>
		<path fill="#3AB8C7" d="M518.54,214.887c-0.513,1.35-1.226,2.438-2.138,3.262c-0.913,0.825-2,1.42-3.263,1.781
			c-1.263,0.362-2.644,0.544-4.144,0.544s-2.882-0.182-4.144-0.544c-1.263-0.361-2.351-0.956-3.263-1.781
			c-0.913-0.824-1.625-1.912-2.138-3.262c-0.513-1.351-0.769-3.025-0.769-5.025v-16.838c0-0.199,0.075-0.368,0.225-0.506
			c0.15-0.137,0.325-0.206,0.525-0.206h3.713c0.199,0,0.375,0.069,0.524,0.207c0.15,0.138,0.226,0.306,0.226,0.507v16.863
			c0,1.077,0.074,2.01,0.225,2.799c0.15,0.788,0.418,1.446,0.807,1.972c0.387,0.526,0.905,0.914,1.556,1.164
			c0.65,0.251,1.487,0.376,2.513,0.376c1,0,1.831-0.125,2.494-0.376c0.662-0.25,1.187-0.638,1.574-1.164
			c0.388-0.525,0.656-1.184,0.807-1.972c0.15-0.789,0.225-1.722,0.225-2.799v-16.863c0-0.201,0.075-0.369,0.226-0.507
			c0.149-0.138,0.324-0.207,0.524-0.207h3.713c0.2,0,0.375,0.069,0.525,0.206c0.149,0.138,0.225,0.307,0.225,0.506v16.838
			C519.309,211.861,519.052,213.536,518.54,214.887z"/>
		<path fill="#3AB8C7" d="M544.996,219.724c0,0.3-0.15,0.45-0.45,0.45h-4.575c-0.2,0-0.35-0.074-0.449-0.224
			c-0.101-0.149-0.201-0.324-0.301-0.524l-5.399-9.977h-0.525c-0.5,0-1.075-0.02-1.725-0.057c-0.65-0.037-1.188-0.068-1.612-0.094
			v10.127c0,0.2-0.069,0.375-0.207,0.524s-0.306,0.224-0.506,0.224h-3.75c-0.2,0-0.375-0.075-0.525-0.225
			c-0.149-0.15-0.225-0.325-0.225-0.525v-25.8c0-0.375,0.106-0.644,0.319-0.807c0.213-0.162,0.507-0.269,0.883-0.318
			c0.977-0.15,2.104-0.269,3.382-0.356c1.277-0.087,2.604-0.131,3.982-0.131c1.452,0,2.83,0.144,4.133,0.431
			c1.303,0.288,2.448,0.757,3.438,1.406c0.988,0.65,1.778,1.519,2.367,2.606c0.588,1.088,0.883,2.432,0.883,4.031v0.338
			c0,2-0.46,3.625-1.38,4.875c-0.919,1.25-2.159,2.175-3.721,2.774l5.888,10.95C544.971,219.499,544.996,219.599,544.996,219.724z
			 M538.921,200.486c0-1.425-0.469-2.45-1.406-3.075c-0.938-0.624-2.344-0.938-4.219-0.938c-0.2,0-0.456,0.007-0.769,0.019
			c-0.313,0.014-0.632,0.025-0.956,0.038c-0.325,0.013-0.632,0.025-0.919,0.037c-0.288,0.013-0.52,0.032-0.693,0.057v8.438
			c0.149,0,0.381,0.006,0.693,0.019s0.638,0.025,0.975,0.037c0.338,0.014,0.662,0.025,0.976,0.038
			c0.313,0.013,0.544,0.019,0.693,0.019c1.95,0,3.375-0.313,4.275-0.938c0.899-0.625,1.35-1.763,1.35-3.412V200.486z"/>
		<path fill="#3AB8C7" d="M554.221,219.949c-0.149,0.149-0.325,0.225-0.524,0.225h-3.713c-0.2,0-0.375-0.075-0.525-0.225
			c-0.149-0.15-0.225-0.325-0.225-0.525v-26.4c0-0.199,0.075-0.368,0.225-0.506c0.15-0.137,0.325-0.206,0.525-0.206h3.713
			c0.199,0,0.375,0.069,0.524,0.206c0.15,0.138,0.226,0.307,0.226,0.506v26.4C554.446,219.624,554.371,219.799,554.221,219.949z"/>
		<path fill="#3AB8C7" d="M577.808,196.474c-0.149,0.126-0.325,0.188-0.524,0.188h-6.563v22.763c0,0.2-0.075,0.375-0.226,0.525
			c-0.149,0.149-0.325,0.225-0.524,0.225h-3.713c-0.2,0-0.375-0.075-0.525-0.225c-0.149-0.15-0.225-0.325-0.225-0.525v-22.763
			h-6.563c-0.2,0-0.375-0.062-0.525-0.188c-0.149-0.125-0.225-0.287-0.225-0.487v-2.963c0-0.199,0.075-0.368,0.225-0.506
			c0.15-0.137,0.325-0.206,0.525-0.206h18.338c0.199,0,0.375,0.069,0.524,0.206c0.15,0.138,0.226,0.307,0.226,0.506v2.963
			C578.033,196.187,577.958,196.349,577.808,196.474z"/>
		<path fill="#3AB8C7" d="M601.132,192.874c0,0.05-0.024,0.149-0.074,0.3l-5.7,13.013c-0.351,0.825-0.713,1.443-1.088,1.856
			c-0.375,0.412-0.775,0.706-1.2,0.881v10.5c0,0.2-0.069,0.375-0.208,0.525c-0.138,0.149-0.308,0.225-0.51,0.225h-3.776
			c-0.202,0-0.372-0.075-0.511-0.225c-0.138-0.15-0.207-0.325-0.207-0.525v-10.5c-0.426-0.175-0.825-0.469-1.2-0.881
			c-0.375-0.413-0.737-1.031-1.088-1.856l-5.662-13.013c-0.051-0.15-0.075-0.25-0.075-0.3c0-0.15,0.05-0.281,0.15-0.394
			c0.1-0.113,0.249-0.169,0.45-0.169h4.162c0.175,0,0.324,0.063,0.45,0.188c0.125,0.125,0.212,0.263,0.263,0.412l4.514,11.175
			c0.125,0.325,0.245,0.532,0.358,0.619c0.114,0.088,0.208,0.131,0.284,0.131c0.101,0,0.207-0.043,0.32-0.131
			c0.113-0.087,0.233-0.294,0.359-0.619l4.514-11.175c0.05-0.149,0.137-0.287,0.263-0.412c0.125-0.125,0.274-0.188,0.45-0.188h4.125
			c0.199,0,0.355,0.056,0.469,0.169C601.076,192.593,601.132,192.724,601.132,192.874z"/>
	</g>
</g>
<g id="Shape_2_copy_14_3_" enable-background="new    ">
	<g id="Shape_2_copy_14_9_">
		<g>
			<polygon fill="#3AB8C7" points="659.789,57.551 659.789,114.322 740.889,168.381 740.889,111.615 			"/>
		</g>
	</g>
</g>
<g id="Shape_2_copy_14_2_" enable-background="new    ">
	<g id="Shape_2_copy_14_1_">
		<g>
			<polygon fill="#9C1D60" points="659.795,165.68 659.795,222.445 740.889,168.381 740.889,111.615 			"/>
		</g>
	</g>
</g>
<g id="Shape_2_copy_16_3_" enable-background="new    ">
	<g id="Shape_2_copy_16_9_">
		<g>
			<polygon fill="#3AB8C7" points="0,111.615 0,168.381 81.094,114.322 81.094,57.551 			"/>
		</g>
	</g>
</g>
<g id="Shape_2_copy_16_2_" enable-background="new    ">
	<g id="Shape_2_copy_16_1_">
		<g>
			<polygon fill="#9C1D60" points="0,111.615 0,168.381 81.094,222.445 81.094,165.68 			"/>
		</g>
	</g>
</g>
</svg>
