<?xml version="1.0" encoding="utf-8"?>
<!-- Generator: Adobe Illustrator 16.0.0, SVG Export Plug-In . SVG Version: 6.00 Build 0)  -->
<!DOCTYPE svg PUBLIC "-//W3C//DTD SVG 1.1//EN" "http://www.w3.org/Graphics/SVG/1.1/DTD/svg11.dtd">
<svg version="1.1" id="Layer_1" xmlns="http://www.w3.org/2000/svg" xmlns:xlink="http://www.w3.org/1999/xlink" x="0px" y="0px"
	 width="126.206px" height="23.251px" viewBox="0 2 126.206 23.251" enable-background="new 0 2 126.206 23.251"
	 xml:space="preserve">
<g id="Layer_1_xA0_Image_1_">
</g>
<g id="AtEar_xA0_Image_1_">
	<g>
		<path fill="#FFFFFF" d="M33.98,23.481c0,0.14-0.043,0.247-0.13,0.325s-0.199,0.117-0.338,0.117h-2.757
			c-0.122,0-0.226-0.043-0.312-0.13c-0.087-0.086-0.147-0.19-0.182-0.313l-1.196-4.939h-5.98l-1.195,4.939
			c-0.035,0.122-0.096,0.227-0.183,0.313c-0.087,0.087-0.19,0.13-0.312,0.13H18.64c-0.14,0-0.251-0.039-0.339-0.117
			c-0.087-0.078-0.13-0.186-0.13-0.325c0-0.017,0.004-0.034,0.014-0.052c0.009-0.017,0.013-0.043,0.013-0.078L22.462,7.05
			c0.156-0.605,0.381-1.083,0.677-1.43c0.294-0.347,0.61-0.611,0.948-0.793c0.338-0.183,0.686-0.299,1.04-0.352
			c0.355-0.052,0.671-0.078,0.949-0.078s0.594,0.026,0.949,0.078c0.354,0.053,0.702,0.169,1.04,0.352
			c0.338,0.182,0.654,0.446,0.949,0.793c0.294,0.347,0.52,0.824,0.676,1.43l4.264,16.302c0,0.035,0.004,0.062,0.013,0.078
			C33.976,23.448,33.98,23.465,33.98,23.481z M26.492,7.855c-0.035-0.155-0.078-0.264-0.13-0.324
			c-0.052-0.062-0.147-0.092-0.286-0.092s-0.234,0.03-0.286,0.092c-0.052,0.061-0.095,0.169-0.13,0.324l-1.872,7.723h4.576
			L26.492,7.855z"/>
		<path fill="#FFFFFF" d="M42.794,23.95c-0.312,0.052-0.61,0.095-0.896,0.13s-0.576,0.052-0.871,0.052
			c-0.727,0-1.352-0.052-1.876-0.156c-0.525-0.104-0.951-0.303-1.277-0.598c-0.327-0.294-0.567-0.715-0.723-1.261
			s-0.232-1.252-0.232-2.119v-8.164l-2.443-0.364c-0.14-0.035-0.261-0.095-0.364-0.182c-0.104-0.086-0.156-0.199-0.156-0.338V9.78
			c0-0.14,0.052-0.261,0.156-0.364c0.104-0.104,0.225-0.156,0.364-0.156h2.443V7.128c0-0.139,0.053-0.251,0.155-0.338
			c0.104-0.087,0.224-0.147,0.361-0.183l2.399-0.416h0.104c0.274,0,0.413,0.131,0.413,0.391V9.26h2.34
			c0.139,0,0.26,0.052,0.364,0.156c0.104,0.104,0.155,0.225,0.155,0.364v1.533c0,0.14-0.052,0.261-0.155,0.364
			c-0.104,0.104-0.227,0.156-0.364,0.156h-2.34v8.164c0,0.329,0.008,0.589,0.025,0.78c0.018,0.19,0.062,0.338,0.13,0.441
			c0.069,0.104,0.169,0.169,0.3,0.195c0.13,0.025,0.315,0.039,0.559,0.039h1.378c0.364,0,0.546,0.13,0.546,0.39v1.638
			C43.288,23.742,43.123,23.897,42.794,23.95z"/>
		<path fill="#FDFFFF" d="M57.289,23.612c-0.078,0.068-0.213,0.121-0.402,0.155c-0.208,0.035-0.438,0.074-0.689,0.117
			s-0.563,0.082-0.936,0.117c-0.373,0.034-0.823,0.064-1.353,0.091s-1.183,0.039-1.963,0.039c-0.85,0-1.64-0.069-2.37-0.208
			c-0.729-0.139-1.366-0.403-1.907-0.793s-0.969-0.932-1.282-1.625c-0.314-0.693-0.472-1.595-0.472-2.704V9.727
			c0-1.108,0.157-2.011,0.472-2.704c0.313-0.692,0.741-1.234,1.282-1.625c0.541-0.39,1.178-0.653,1.907-0.793
			c0.73-0.139,1.521-0.208,2.37-0.208c0.78,0,1.434,0.014,1.963,0.039c0.529,0.026,0.979,0.057,1.353,0.092
			c0.372,0.034,0.685,0.073,0.936,0.116s0.481,0.083,0.689,0.117c0.189,0.035,0.324,0.087,0.402,0.156s0.117,0.199,0.117,0.39v1.664
			c0,0.14-0.052,0.26-0.156,0.364c-0.104,0.104-0.226,0.156-0.363,0.156h-5.305c-0.763,0-1.296,0.155-1.599,0.468
			c-0.304,0.312-0.455,0.901-0.455,1.768v2.809h7.046c0.139,0,0.26,0.052,0.364,0.155c0.104,0.104,0.156,0.227,0.156,0.364v1.872
			c0,0.139-0.053,0.26-0.156,0.364c-0.104,0.104-0.227,0.156-0.364,0.156h-7.046v3.354c0,0.867,0.151,1.456,0.455,1.769
			c0.303,0.312,0.836,0.468,1.599,0.468h5.305c0.139,0,0.26,0.052,0.363,0.156c0.104,0.104,0.156,0.226,0.156,0.363v1.664
			C57.406,23.413,57.367,23.543,57.289,23.612z"/>
		<path fill="#FDFFFF" d="M71.498,23.404c0,0.139-0.052,0.26-0.156,0.363c-0.104,0.104-0.225,0.156-0.363,0.156h-2.21
			c-0.14,0-0.261-0.052-0.364-0.156c-0.104-0.104-0.156-0.225-0.156-0.363v-0.416c-0.606,0.363-1.213,0.646-1.819,0.845
			c-0.607,0.199-1.223,0.299-1.847,0.299c-0.538,0-1.075-0.061-1.611-0.182c-0.537-0.121-1.019-0.347-1.443-0.677
			c-0.425-0.328-0.771-0.771-1.04-1.325c-0.27-0.556-0.403-1.274-0.403-2.158v-0.104c0-0.745,0.117-1.396,0.352-1.949
			c0.233-0.555,0.605-1.022,1.118-1.404c0.512-0.382,1.17-0.667,1.976-0.858c0.806-0.189,1.771-0.286,2.899-0.286h1.638v-1.152
			c0-0.856-0.188-1.424-0.56-1.704c-0.373-0.279-0.948-0.419-1.729-0.419c-0.832,0-1.638,0.021-2.418,0.064s-1.387,0.091-1.82,0.144
			h-0.13c-0.139,0-0.251-0.026-0.338-0.078s-0.13-0.173-0.13-0.362v-1.648c0-0.292,0.165-0.473,0.494-0.541
			c0.52-0.104,1.147-0.197,1.885-0.284c0.737-0.085,1.556-0.129,2.457-0.129c1.854,0,3.271,0.407,4.251,1.222
			c0.979,0.815,1.469,2.063,1.469,3.744V23.404L71.498,23.404z M68.065,17.475h-1.647c-0.593,0-1.077,0.048-1.451,0.144
			c-0.375,0.096-0.671,0.233-0.889,0.416c-0.218,0.182-0.366,0.412-0.445,0.688c-0.077,0.278-0.116,0.599-0.116,0.962v0.104
			c0,0.641,0.146,1.069,0.443,1.287c0.296,0.217,0.776,0.325,1.438,0.325c0.471,0,0.937-0.069,1.398-0.208
			c0.462-0.14,0.886-0.313,1.269-0.521V17.475z"/>
		<path fill="#FDFFFF" d="M82.261,11.834c-0.104,0.104-0.227,0.156-0.364,0.156c-0.711,0-1.349,0.083-1.911,0.247
			c-0.563,0.165-1.122,0.395-1.677,0.688v10.452c0,0.139-0.053,0.264-0.156,0.377c-0.104,0.113-0.225,0.169-0.364,0.169h-2.392
			c-0.14,0-0.26-0.056-0.364-0.169c-0.104-0.113-0.156-0.238-0.156-0.377V9.78c0-0.14,0.053-0.261,0.156-0.364
			c0.104-0.104,0.225-0.156,0.364-0.156h2.262c0.138,0,0.26,0.052,0.364,0.156c0.104,0.104,0.156,0.225,0.156,0.364v0.546
			c0.641-0.502,1.291-0.836,1.949-1.001c0.659-0.165,1.248-0.247,1.769-0.247c0.139,0,0.26,0.052,0.363,0.155
			c0.104,0.104,0.156,0.227,0.156,0.364v1.872C82.417,11.608,82.365,11.729,82.261,11.834z"/>
	</g>
</g>
<g id="Shape_2_copy_14_3_" enable-background="new    ">
</g>
<g id="Shape_2_copy_14_2_" enable-background="new    ">
</g>
<g id="Shape_2_copy_16_3_" enable-background="new    ">
	<g id="Shape_2_copy_16_17_">
		<g>
			<polygon fill="#3AB8C7" points="0,10.473 0,18.042 10.813,10.834 10.813,3.264 			"/>
		</g>
	</g>
</g>
<g id="Shape_2_copy_16_2_" enable-background="new    ">
	<g id="Shape_2_copy_16_1_">
		<g>
			<polygon fill="#9C1D60" points="0,10.473 0,18.042 10.813,25.251 10.813,17.681 			"/>
		</g>
	</g>
	<g id="Shape_2_copy_16_7_">
		<g>
			<polygon fill="#3AB8C7" points="99.896,10.473 99.896,18.042 89.083,10.834 89.083,3.264 			"/>
		</g>
	</g>
	<g id="Shape_2_copy_16_5_">
		<g>
			<polygon fill="#9C1D60" points="89.083,17.681 89.083,25.251 99.896,18.042 99.896,10.473 			"/>
		</g>
	</g>
</g>
<text transform="matrix(1 0 0 1 101.198 23.9236)" fill="#9C1D60" font-family="'NeoSansPro-Medium'" font-size="12">beta</text>
</svg>
