<?xml version="1.0" encoding="utf-8"?>
<!-- Generator: Adobe Illustrator 16.0.0, SVG Export Plug-In . SVG Version: 6.00 Build 0)  -->
<!DOCTYPE svg PUBLIC "-//W3C//DTD SVG 1.1//EN" "http://www.w3.org/Graphics/SVG/1.1/DTD/svg11.dtd">
<svg version="1.1" xmlns="http://www.w3.org/2000/svg" xmlns:xlink="http://www.w3.org/1999/xlink" x="0px" y="0px"
	 width="99.896px" height="23.986px" viewBox="0 0 99.896 23.986" enable-background="new 0 0 99.896 23.986" xml:space="preserve">
<g id="Layer_1_xA0_Image_1_">
</g>
<g id="AtEar_xA0_Image_1_">
	<g>
		<path fill="#FFFFFF" d="M33.98,22.217c0,0.139-0.043,0.247-0.13,0.325c-0.087,0.078-0.199,0.117-0.338,0.117h-2.756
			c-0.122,0-0.226-0.043-0.312-0.13c-0.087-0.086-0.147-0.19-0.182-0.312l-1.196-4.94h-5.98l-1.196,4.94
			c-0.035,0.122-0.095,0.226-0.182,0.312c-0.087,0.087-0.191,0.13-0.312,0.13H18.64c-0.139,0-0.251-0.039-0.338-0.117
			c-0.087-0.078-0.13-0.186-0.13-0.325c0-0.017,0.004-0.035,0.013-0.052c0.009-0.017,0.013-0.043,0.013-0.078l4.264-16.302
			c0.156-0.606,0.381-1.083,0.676-1.43c0.294-0.346,0.611-0.611,0.949-0.793c0.338-0.182,0.685-0.299,1.04-0.351
			c0.355-0.052,0.671-0.078,0.949-0.078s0.594,0.026,0.949,0.078c0.355,0.052,0.702,0.169,1.04,0.351
			c0.338,0.182,0.654,0.447,0.949,0.793c0.294,0.347,0.52,0.824,0.676,1.43l4.264,16.302c0,0.035,0.004,0.061,0.013,0.078
			C33.976,22.183,33.98,22.2,33.98,22.217z M26.492,6.591c-0.035-0.156-0.078-0.264-0.13-0.325
			c-0.052-0.061-0.147-0.091-0.286-0.091s-0.234,0.03-0.286,0.091c-0.052,0.061-0.095,0.169-0.13,0.325l-1.872,7.722h4.576
			L26.492,6.591z"/>
		<path fill="#FFFFFF" d="M42.794,22.685c-0.312,0.052-0.611,0.095-0.897,0.13s-0.576,0.052-0.871,0.052
			c-0.726,0-1.351-0.052-1.876-0.156c-0.525-0.104-0.951-0.303-1.277-0.598c-0.327-0.294-0.568-0.715-0.723-1.261
			s-0.232-1.252-0.232-2.119v-8.164l-2.444-0.364c-0.139-0.035-0.26-0.095-0.364-0.182c-0.104-0.086-0.156-0.199-0.156-0.338v-1.17
			c0-0.139,0.052-0.26,0.156-0.364s0.225-0.156,0.364-0.156h2.444V5.863c0-0.139,0.052-0.251,0.155-0.338
			c0.104-0.087,0.224-0.147,0.361-0.182l2.4-0.416h0.104c0.275,0,0.413,0.13,0.413,0.39v2.678h2.34c0.139,0,0.26,0.052,0.364,0.156
			s0.156,0.225,0.156,0.364v1.534c0,0.139-0.052,0.26-0.156,0.364s-0.226,0.156-0.364,0.156h-2.34v8.164
			c0,0.329,0.008,0.589,0.026,0.78c0.017,0.191,0.061,0.338,0.13,0.442s0.169,0.169,0.299,0.195c0.13,0.026,0.316,0.039,0.559,0.039
			h1.378c0.364,0,0.546,0.13,0.546,0.39v1.638C43.288,22.477,43.123,22.633,42.794,22.685z"/>
		<path fill="#FDFFFF" d="M57.289,22.347c-0.078,0.069-0.213,0.122-0.403,0.156c-0.208,0.035-0.438,0.074-0.689,0.117
			c-0.251,0.043-0.563,0.082-0.936,0.117c-0.373,0.034-0.823,0.065-1.352,0.091s-1.183,0.039-1.963,0.039
			c-0.85,0-1.64-0.069-2.37-0.208s-1.366-0.403-1.907-0.793s-0.969-0.932-1.283-1.625c-0.314-0.693-0.471-1.595-0.471-2.704V8.463
			c0-1.109,0.157-2.011,0.471-2.704s0.742-1.235,1.283-1.625s1.177-0.654,1.907-0.793s1.521-0.208,2.37-0.208
			c0.78,0,1.434,0.013,1.963,0.039c0.529,0.026,0.979,0.056,1.352,0.091c0.373,0.035,0.685,0.074,0.936,0.117
			c0.251,0.043,0.481,0.083,0.689,0.117c0.19,0.035,0.325,0.087,0.403,0.156c0.078,0.069,0.117,0.199,0.117,0.39v1.664
			c0,0.139-0.052,0.26-0.156,0.364s-0.226,0.156-0.364,0.156h-5.304c-0.763,0-1.296,0.156-1.599,0.468
			c-0.304,0.312-0.455,0.901-0.455,1.768v2.808h7.046c0.139,0,0.26,0.052,0.364,0.156s0.156,0.226,0.156,0.364v1.872
			c0,0.139-0.052,0.26-0.156,0.364s-0.226,0.156-0.364,0.156h-7.046v3.354c0,0.867,0.151,1.456,0.455,1.768
			c0.303,0.312,0.836,0.468,1.599,0.468h5.304c0.139,0,0.26,0.052,0.364,0.156s0.156,0.226,0.156,0.364v1.664
			C57.406,22.148,57.367,22.278,57.289,22.347z"/>
		<path fill="#FDFFFF" d="M71.498,22.139c0,0.139-0.052,0.26-0.156,0.364s-0.225,0.156-0.364,0.156h-2.21
			c-0.139,0-0.26-0.052-0.364-0.156s-0.156-0.225-0.156-0.364v-0.416c-0.607,0.364-1.213,0.646-1.82,0.845
			c-0.607,0.199-1.222,0.299-1.846,0.299c-0.538,0-1.075-0.061-1.612-0.182s-1.018-0.346-1.443-0.676
			c-0.425-0.329-0.771-0.771-1.04-1.326c-0.269-0.555-0.403-1.274-0.403-2.158v-0.104c0-0.745,0.117-1.396,0.351-1.95
			s0.606-1.022,1.118-1.404s1.17-0.667,1.976-0.858c0.806-0.19,1.772-0.286,2.899-0.286h1.638V12.77
			c0-0.856-0.187-1.424-0.559-1.704c-0.373-0.279-0.949-0.419-1.729-0.419c-0.832,0-1.638,0.022-2.418,0.065
			c-0.78,0.043-1.387,0.091-1.82,0.143h-0.13c-0.139,0-0.251-0.026-0.338-0.078c-0.087-0.052-0.13-0.173-0.13-0.362V8.766
			c0-0.292,0.165-0.472,0.494-0.541c0.52-0.103,1.148-0.197,1.885-0.284c0.737-0.085,1.556-0.129,2.457-0.129
			c1.854,0,3.271,0.408,4.251,1.222c0.979,0.815,1.469,2.063,1.469,3.744V22.139z M68.065,16.211h-1.647
			c-0.593,0-1.077,0.048-1.451,0.143c-0.375,0.096-0.671,0.234-0.889,0.416c-0.218,0.182-0.366,0.412-0.445,0.689
			c-0.078,0.278-0.117,0.598-0.117,0.962v0.104c0,0.641,0.147,1.07,0.444,1.287c0.296,0.217,0.776,0.325,1.438,0.325
			c0.471,0,0.937-0.069,1.399-0.208c0.462-0.139,0.885-0.312,1.268-0.52V16.211z"/>
		<path fill="#FDFFFF" d="M82.261,10.569c-0.104,0.104-0.226,0.156-0.364,0.156c-0.711,0-1.348,0.083-1.911,0.247
			c-0.563,0.165-1.122,0.395-1.677,0.689v10.452c0,0.139-0.052,0.264-0.156,0.377s-0.225,0.169-0.364,0.169h-2.392
			c-0.139,0-0.26-0.056-0.364-0.169s-0.156-0.238-0.156-0.377V8.515c0-0.139,0.052-0.26,0.156-0.364s0.225-0.156,0.364-0.156h2.262
			c0.138,0,0.26,0.052,0.364,0.156s0.156,0.225,0.156,0.364v0.546c0.641-0.502,1.291-0.836,1.95-1.001
			c0.659-0.165,1.248-0.247,1.768-0.247c0.139,0,0.26,0.052,0.364,0.156s0.156,0.226,0.156,0.364v1.872
			C82.417,10.344,82.365,10.465,82.261,10.569z"/>
	</g>
</g>
<g id="Shape_2_copy_14_3_" enable-background="new    ">
</g>
<g id="Shape_2_copy_14_2_" enable-background="new    ">
</g>
<g id="Shape_2_copy_16_3_" enable-background="new    ">
	<g id="Shape_2_copy_16_17_">
		<g>
			<polygon fill="#3AB8C7" points="0,9.209 0,16.777 10.813,9.569 10.813,2 			"/>
		</g>
	</g>
</g>
<g id="Shape_2_copy_16_2_" enable-background="new    ">
	<g id="Shape_2_copy_16_1_">
		<g>
			<polygon fill="#9C1D60" points="0,9.209 0,16.777 10.813,23.986 10.813,16.417 			"/>
		</g>
	</g>
	<g id="Shape_2_copy_16_7_">
		<g>
			<polygon fill="#3AB8C7" points="99.896,9.209 99.896,16.777 89.083,9.569 89.083,2 			"/>
		</g>
	</g>
	<g id="Shape_2_copy_16_5_">
		<g>
			<polygon fill="#9C1D60" points="89.083,16.417 89.083,23.986 99.896,16.777 99.896,9.209 			"/>
		</g>
	</g>
</g>
</svg>
